<?xml version="1.0" encoding="UTF-8" standalone="no"?>
<svg
   version="1.1"
   id="svg1"
   sodipodi:docname="arrow_clockwise.svg"
   inkscape:version="1.4 (e7c3feb100, 2024-10-09)"
   xmlns:inkscape="http://www.inkscape.org/namespaces/inkscape"
   xmlns:sodipodi="http://sodipodi.sourceforge.net/DTD/sodipodi-0.dtd"
   xmlns="http://www.w3.org/2000/svg"
   xmlns:svg="http://www.w3.org/2000/svg">
  <sodipodi:namedview
     id="namedview1"
     pagecolor="#505050"
     bordercolor="#ffffff"
     borderopacity="1"
     inkscape:showpageshadow="0"
     inkscape:pageopacity="0"
     inkscape:pagecheckerboard="1"
     inkscape:deskcolor="#505050"
     inkscape:zoom="31.653333"
     inkscape:cx="22.54107"
     inkscape:cy="4.8810026"
     inkscape:window-width="1920"
     inkscape:window-height="1045"
     inkscape:window-x="2560"
     inkscape:window-y="35"
     inkscape:window-maximized="1"
     inkscape:current-layer="svg1" />
  <defs
     id="defs1" />
  <g
     id="g1">
    <path
       stroke="none"
       fill="#FFFFFF"
       d="M-13.25 21.3 Q-21.85 16.3 -24.4 6.8 -26.95 -2.85 -21.95 -11.5 L-21.95 -11.45 Q-17.05 -20.05 -7.4 -22.65 2.2 -25.35 10.85 -20.3 19.45 -15.35 22.05 -5.7 23.1 -1.8 22.9 2 L24.35 0.75 Q25.25 -0.05 26.5 0 27.75 0.1 28.55 1.05 29.4 1.95 29.3 3.2 29.2 4.45 28.3 5.25 L18.15 14.1 Q17.45 14.7 16.6 14.85 L14.9 14.6 Q14.05 14.2 13.6 13.45 L6.7 2.35 Q6.05 1.25 6.35 0.1 6.6 -1.15 7.7 -1.8 8.75 -2.45 9.95 -2.15 11.15 -1.9 11.8 -0.8 L12.9 0.95 Q12.95 -1.05 12.4 -3.05 L12.4 -3.1 Q10.85 -8.75 5.85 -11.65 0.8 -14.55 -4.75 -13 L-4.8 -13 Q-10.45 -11.5 -13.3 -6.5 -16.25 -1.45 -14.75 4.25 L-14.75 4.2 Q-13.25 9.75 -8.2 12.7 L-8.15 12.7 -5.6 13.95 Q-3.7 14.7 -2.85 16.6 -2 18.45 -2.7 20.4 -3.45 22.3 -5.35 23.15 L-9.15 23.3 Q-11.25 22.5 -13.2 21.35 L-13.25 21.3"
       id="path1"
       style="fill:#2c2c2c;fill-opacity:1" />
  </g>
  <path
     style="fill:#2c2c2c;stroke-width:0.126369;fill-opacity:1"
     d="m -10.594722,22.624572 c -1.442255,-0.659535 -3.235824,-1.707962 -4.644619,-2.715 -4.593543,-3.283568 -7.618421,-7.667707 -9.073526,-13.150807 -1.817984,-6.85049499 -0.756256,-13.3315072 3.169069,-19.344665 3.21538,-4.9256 7.414003,-8.072157 13.0402976,-9.772735 6.1034381,-1.844798 11.5164326,-1.487185 16.9493302,1.119768 1.9464352,0.933988 3.0061492,1.569842 4.5639402,2.738474 4.865709,3.650183 7.879532,8.685524 9.106573,15.2147991 0.104494,0.5560236 0.22744,2.0015926 0.273216,3.21237444 l 0.08323,2.20142246 0.904014,-0.7805054 c 1.396288,-1.20552237 2.193968,-1.47441032 3.392531,-1.14358134 0.718078,0.19820472 1.759621,1.26490434 1.958722,2.00603324 0.190671,0.7097452 0.08498,1.5243855 -0.28474,2.1946087 C 28.497969,5.0308029 18.24499,14.055287 17.395418,14.480986 16.924534,14.716935 16.720907,14.7444 15.964036,14.674056 14.980428,14.58264 14.565756,14.408963 14.068806,13.88028 13.679318,13.46592 6.8247574,2.4955223 6.541203,1.8327106 6.4095114,1.524877 6.3706681,1.1318846 6.4131912,0.53756487 6.4875657,-0.50192249 6.8774469,-1.1660307 7.7311845,-1.7074549 c 0.7582077,-0.4808416 1.4740817,-0.5827595 2.3351245,-0.3324478 0.801209,0.2329183 1.329699,0.7357494 2.177196,2.07149495 0.31971,0.50389638 0.618645,0.91617523 0.6643,0.91617523 0.170729,0 -0.09154,-2.51087238 -0.391131,-3.74452318 -1.343788,-5.5334545 -5.7200122,-9.6288373 -11.3396466,-10.6119313 -4.4962507,-0.786571 -10.0870047,1.176759 -12.8754554,4.5215307 -2.669911,3.2025822 -3.951303,7.0793252 -3.543151,10.7195068 0.371464,3.3129806 1.596768,6.0547 3.697934,8.2744375 1.381111,1.459047 2.3480233,2.137222 4.7786981,3.351685 2.4541314,1.226183 2.7527742,1.437453 3.3982279,2.404027 1.5903942,2.381635 0.9265551,5.50646 -1.4679023,6.909705 -0.5167709,0.302847 -0.681163,0.327001 -2.5346487,0.372413 l -1.9820358,0.04856 z"
     id="path2" />
</svg>
