<?xml version="1.0" encoding="UTF-8" standalone="no"?>
<svg
   version="1.1"
   id="svg1"
   sodipodi:docname="arrow_counterclockwise.svg"
   inkscape:version="1.4 (e7c3feb100, 2024-10-09)"
   xmlns:inkscape="http://www.inkscape.org/namespaces/inkscape"
   xmlns:sodipodi="http://sodipodi.sourceforge.net/DTD/sodipodi-0.dtd"
   xmlns="http://www.w3.org/2000/svg"
   xmlns:svg="http://www.w3.org/2000/svg">
  <sodipodi:namedview
     id="namedview1"
     pagecolor="#505050"
     bordercolor="#ffffff"
     borderopacity="1"
     inkscape:showpageshadow="0"
     inkscape:pageopacity="0"
     inkscape:pagecheckerboard="1"
     inkscape:deskcolor="#505050"
     inkscape:zoom="16"
     inkscape:cx="17.28125"
     inkscape:cy="0.78125"
     inkscape:window-width="1920"
     inkscape:window-height="1045"
     inkscape:window-x="2560"
     inkscape:window-y="35"
     inkscape:window-maximized="1"
     inkscape:current-layer="svg1" />
  <defs
     id="defs1" />
  <g
     id="g1">
    <path
       stroke="none"
       fill="#FFFFFF"
       d="M10.15 12.7 L10.2 12.7 Q15.25 9.75 16.8 4.2 18.25 -1.45 15.35 -6.5 12.45 -11.5 6.8 -13 1.2 -14.55 -3.85 -11.65 -8.85 -8.75 -10.35 -3.1 L-10.35 -3.05 Q-10.95 -1 -10.9 0.95 L-9.8 -0.8 Q-9.15 -1.9 -7.9 -2.15 -6.75 -2.45 -5.65 -1.8 -4.6 -1.15 -4.3 0.1 -4.05 1.25 -4.7 2.35 L-11.6 13.45 Q-12.05 14.2 -12.85 14.6 L-14.55 14.85 Q-15.45 14.7 -16.1 14.1 L-26.25 5.25 Q-27.2 4.45 -27.3 3.2 -27.4 1.95 -26.55 1.05 -25.75 0.1 -24.5 0 -23.25 -0.05 -22.3 0.75 L-20.9 2 Q-21.1 -1.8 -20 -5.7 -17.45 -15.35 -8.85 -20.3 -0.2 -25.35 9.45 -22.65 L9.4 -22.65 Q19.05 -20.05 24 -11.45 L24 -11.5 Q28.95 -2.85 26.45 6.8 23.85 16.3 15.25 21.3 L15.2 21.35 11.2 23.3 7.4 23.15 Q5.45 22.3 4.75 20.4 4 18.45 4.85 16.6 5.7 14.7 7.65 13.95 L10.15 12.7"
       id="path1"
       style="fill:#2c2c2c;fill-opacity:1" />
  </g>
  <path
     style="fill:#2c2c2c;stroke-width:0.266667;fill-opacity:1"
     d="M 7.7942,22.943701 C 5.0192427,22.405803 3.7095813,18.649469 5.3922293,16.05444 c 0.5896374,-0.909357 1.259632,-1.397592 3.576464,-2.606219 2.1913417,-1.143165 3.2275097,-1.879434 4.4787577,-3.18248 7.58593,-7.8999591 3.625568,-20.97943 -7.1141123,-23.495038 C 0.04513333,-14.702213 -6.5732736,-11.65247 -9.3553416,-6 c -0.9404014,1.9106611 -1.8007924,5.28827413 -1.6578924,6.50833893 0.07437,0.63498667 0.149497,0.58503867 1.0858143,-0.7219256 1.1014792,-1.53750613 2.013889,-2.03792053 3.2819965,-1.80002213 1.7146813,0.3216763 2.7199355,2.459032 1.8996464,4.0389989 -0.6883048,1.3257512 -6.8549132,11.1427459 -7.3869782,11.7597749 -0.605744,0.702475 -2.207331,1.05516 -3.049372,0.671499 -0.849347,-0.386987 -11.503775,-9.7746933 -11.713287,-10.3206747 -0.744361,-1.939773 0.532374,-3.86932263 2.560235,-3.86932263 0.954544,0 1.375216,0.17350586 2.262903,0.93333333 0.599715,0.5133333 1.161315,0.9333333 1.248,0.9333333 0.08669,0 0.157609,-0.9050589 0.157609,-2.0112421 0,-5.8564669 2.911318,-12.6868642 7.105859,-16.6714342 4.5637997,-4.335345 10.7144224,-6.913295 16.4941413,-6.913295 5.4178587,0 11.7399037,2.368232 15.9704777,5.982524 2.983754,2.549099 5.885845,7.099415 7.236728,11.3467807 1.440104,4.5278813 1.152549,10.7927973 -0.709904,15.4666666 -2.263406,5.6800717 -6.121376,9.7303337 -12.158048,12.7640397 -2.270995,1.14128 -3.209118,1.286206 -5.478387,0.846328 z"
     id="path2" />
  <path
     style="fill:#2c2c2c;stroke-width:0.0223391;fill-opacity:1"
     d="m -27.090323,3.1777361 c -0.03521,-0.9899748 0.367266,-1.8507604 1.114106,-2.3827503 0.524,-0.37325722 1.088122,-0.5312728 1.816487,-0.50881307 0.813057,0.0250712 1.217579,0.20072346 2.021688,0.87785717 0.705137,0.5937887 1.209335,0.9693536 1.301365,0.9693536 0.02495,0 0.05148,-0.01591 0.05894,-0.035356 0.06116,-0.1593917 0.124425,-1.19490698 0.124949,-2.04528703 0.002,-3.30069027 0.971916,-7.08001477 2.693641,-10.49626647 1.316134,-2.611479 2.939987,-4.787103 4.866003,-6.519431 4.0395478,-3.633316 9.1156771,-5.923796 14.1877616,-6.401884 0.9777665,-0.09216 2.4621278,-0.103393 3.3843727,-0.0256 4.0820963,0.344313 8.3259927,1.796344 11.9036607,4.072788 0.743926,0.473354 1.632503,1.116351 2.248155,1.626821 1.487963,1.233747 2.933092,2.892076 4.222862,4.845857 1.875166,2.840557 3.216881,5.9070363 3.748446,8.5670426 0.448053,2.2421 0.549573,4.56494918 0.313156,7.1652644 L 26.8782,3.2950204 h -4.879148 c -4.636537,0 -4.878546,-0.00194 -4.867014,-0.039093 0.02135,-0.068757 0.122856,-0.7219637 0.157093,-1.010844 0.170878,-1.44186115 0.110422,-2.93297555 -0.178105,-4.3928184 -0.465762,-2.3565876 -1.502903,-4.5222399 -3.068885,-6.4081334 -0.352207,-0.4241589 -1.276369,-1.3494417 -1.699793,-1.7018556 -0.853014,-0.70996 -1.737943,-1.294518 -2.6806909,-1.770785 -0.733703,-0.37066 -1.222498,-0.573521 -2.021688,-0.839044 -2.1580123,-0.716978 -4.3134735,-0.910992 -6.5565241,-0.590155 -2.05803588,0.294374 -4.0929754,1.074589 -5.841673,2.23975 -1.9211346,1.2800572 -3.4512005,2.9768528 -4.4875649,4.9765703 -0.6241586,1.2043456 -1.2383521,3.045244 -1.5755501,4.7223338 -0.206519,1.02714262 -0.261436,1.70103042 -0.178102,2.18548495 0.03284,0.19092106 0.05968,0.23830675 0.134996,0.23830675 0.09865,0 0.216709,-0.12422323 0.573199,-0.60315553 0.6655133,-0.89409319 0.7642472,-1.02174101 0.9627448,-1.2446941 0.7393047,-0.83038347 1.5150485,-1.19186107 2.3642917,-1.10170107 0.7000943,0.074326 1.190982,0.3103398 1.6609085,0.7985493 0.4031769,0.41886157 0.6877054,0.97954379 0.7911488,1.55901541 0.045925,0.25726147 0.046597,0.72207549 0.00141,0.97445809 -0.073018,0.4078001 -0.1684993,0.61676 -0.6799779,1.4881143 l -0.3046914,0.5190689 -10.7953665,3.15e-4 -10.795367,3.127e-4 z"
     id="path3" />
  <path
     style="fill:#2c2c2c;fill-opacity:1;stroke-width:0.0223391"
     d="m -27.090323,3.1777361 c -0.0133,-0.3739542 0.02891,-0.7065319 0.130764,-1.0303684 0.217382,-0.6911224 0.533723,-1.20116269 1.420632,-1.66921334 0.466157,-0.24600645 1.237418,-0.2921726 1.726019,-0.20682804 0.600462,0.10488325 1.012456,0.2586245 1.784852,0.90423548 0.703724,0.588213 1.101348,0.9578217 1.191037,0.9578217 0.03673,0 0.0508,-0.021463 0.06957,-0.1061107 0.0643,-0.2899548 0.526557,-0.6274548 0.55127,-1.82399915 0.0119,-0.57618107 -0.399417,-1.32748855 -0.380647,-1.55478885 0.311313,-3.7690367 1.661314,-7.736111 3.793409,-11.1472078 1.374345,-2.198788 2.937367,-3.930831 5.041882,-5.587101 3.7823337,-2.976726 8.3968276,-4.871688 12.8561486,-5.279432 1.1313746,-0.103449 2.4690038,-0.107839 3.5407464,-0.01162 3.7869768,0.339984 7.75769,1.656212 11.169547,3.702527 0.806423,0.483666 1.559934,0.996379 2.300927,1.565627 1.369685,1.052225 2.616352,2.338915 3.823005,3.945738 1.817263,2.419933 3.391488,5.4420849 4.219258,8.1000077 0.815263,2.6177643 1.075853,5.74953077 0.755895,9.0843397 l -0.02626,0.2736539 H 21.99882 c -4.636182,0 -4.878328,-0.00195 -4.867137,-0.039093 0.05097,-0.1691583 0.175557,-1.0957794 0.217002,-1.6139995 0.03553,-0.4443179 0.03625,-1.61096142 0.0013,-2.04402709 -0.260914,-3.22882021 -1.503794,-6.15192861 -3.614137,-8.50002521 -1.652907,-1.8391285 -3.698353,-3.1701675 -6.0958359,-3.9667635 -3.0755794,-1.021903 -6.332693,-0.981254 -9.3584697,0.116796 -3.407092,1.236428 -6.1823661,3.7030033 -7.6873108,6.8322365 -0.540838,1.1245648 -1.1151866,2.9103781 -1.4153746,4.4008015 -0.206553,1.02552303 -0.261632,1.7008048 -0.178259,2.18548495 0.03172,0.18440698 0.06053,0.23830675 0.127367,0.23830675 0.122464,0 0.237213,-0.12959132 0.830787,-0.93824194 0.5612939,-0.76467612 0.8374578,-1.08483776 1.1838393,-1.37244686 0.733168,-0.6087683 1.4816703,-0.7848017 2.367944,-0.5568949 0.9742577,0.2505318 1.7817348,1.17980261 1.9773515,2.27559771 0.045925,0.25726147 0.046597,0.72207549 0.00141,0.97445809 -0.073018,0.4078001 -0.1684993,0.61676 -0.6799779,1.4881143 L -5.4953725,3.29439 -16.290739,3.294705 -27.086106,3.2950177 Z"
     id="path4"
     sodipodi:nodetypes="ccsssscscssssssssscssccssssssssssscccccc" />
</svg>
